<svg xmlns="http://www.w3.org/2000/svg" xmlns:xlink="http://www.w3.org/1999/xlink" version="1.1" x="0px" y="0px" viewBox="0 0 500 625" style="enable-background:new 0 0 500 500;" xml:space="preserve"><g><path d="M364.9,269.2v-8.5c23-1.8,41.2-21.1,41.2-44.6c0-23.5-18.2-42.8-41.3-44.6c-0.5-45.4-27.7-84.5-66.5-102.4l1.4-19.2   c2.4-17.6-14.7-33.1-36.6-33.1h-26.3c-22,0-39.1,15.4-36.6,33.1l1.4,19.6c-38.6,18-65.6,56.9-66.5,102   c-23.1,1.8-41.3,21.1-41.3,44.6c0,23.5,18.2,42.8,41.2,44.6v8.6c0,19.9,8.8,38.7,24.1,51.5l23.9,19.9l-34,22.9   c-16.7,11.3-26.7,30-26.7,50.2v0.8c0,28.1,19.1,52.3,46.3,58.9c26.2,6.3,53.2,9.5,80.2,9.5c25.6,0,51.2-2.9,76.1-8.6l5.5-1.3   c27.7-6.3,47-30.6,47-59c0-20.4-10.2-39.3-27.3-50.6l-34.2-22.5l24.5-20.3C356.1,308,364.9,289.2,364.9,269.2z M386.2,216.2   c0,12.5-9.3,22.8-21.2,24.5v-49C376.9,193.4,386.2,203.7,386.2,216.2z M258.1,28.3c10.9,0.3,31.5,5.6,31.5,24c0,2.8-2.2,5-5,5   s-5-2.2-5-5c0-13.3-21.6-14-21.8-14c-2.8-0.1-4.9-2.4-4.9-5.1C253.1,30.4,255.3,28.3,258.1,28.3z M203.3,91.3l1.7,23.1   c2.6,18.5,22,32.6,45,32.6s42.5-14,45-32.6l1.7-23.6c28.7,16.1,48.1,46.9,48.1,82.1v6.6c-4.5-3.1-9.9-5-15.7-5h-50.3   c-10.2,0-19.1,5.6-23.7,13.8c-1.6-0.5-3.4-0.8-5.1-0.8c-1.8,0-3.5,0.3-5.1,0.8c-4.7-8.2-13.6-13.8-23.7-13.8h-50.3   c-5.9,0-11.3,1.9-15.7,5V174C155.1,138.6,174.5,107.7,203.3,91.3z M341.4,201.4v0.2c0,10.3-4.1,19.8-11.5,26.9   c-7.4,7.1-17.1,10.8-27.4,10.4c-19.3-0.7-35.1-16.4-35.9-35.8c0-0.6,0-1.1,0-1.7v0c0-6.6,5.5-12,12.3-12h50.3   C335.9,189.5,341.4,194.8,341.4,201.4z M233.4,201.4v0.2c0,10.3-4.1,19.8-11.5,26.9c-7.4,7.1-17.1,10.8-27.4,10.4   c-19.3-0.7-35.1-16.4-35.9-35.8c0-0.6,0-1.1,0-1.7c0,0,0,0,0,0c0-6.6,5.5-12,12.3-12h50.3C227.9,189.5,233.4,194.8,233.4,201.4z    M113.8,216.2c0-12.5,9.3-22.8,21.2-24.5v49C123.1,238.9,113.8,228.6,113.8,216.2z M263.8,405.8c-2.8,5.2-7.9,8.3-13.8,8.3   c0,0,0,0,0,0c-5.9,0-11-3.1-13.8-8.3l-25-47.2c5.6,1.8,11.4,2.7,17.3,2.7h42.8c6,0,11.8-0.9,17.4-2.7L263.8,405.8z M327.9,305.4   l-33,27.4c-6.6,5.5-15,8.5-23.6,8.5h-42.8c-8.6,0-17-3-23.7-8.6L172,305.4c-10.8-9-16.9-22.1-16.9-36.1v-17.1   c0.1-0.6,0.1-1.2,0.1-1.8c-0.1-1.5-0.1-2.8-0.1-4.1v-12.1c9.2,11.5,23.2,19.1,38.9,19.7c0.7,0,1.3,0,2,0c13.6,0,26.5-5.2,36.3-14.7   c9.9-9.6,15.6-22.3,16-36c0.1-0.1,0.3-0.2,0.4-0.4c0.4-0.4,0.9-0.5,1.3-0.5s0.8,0.1,1.3,0.5c0.1,0.1,0.3,0.2,0.4,0.3   c0,0.2,0,0.4,0,0.5C252.8,231,274.9,253,302,254c0.7,0,1.3,0,2,0c13.6,0,26.5-5.2,36.3-14.7c1.6-1.6,3.1-3.2,4.5-5v12   c0,1.2,0,2.6-0.1,4.1c0,0.6,0,1.2,0.1,1.8v17C344.9,283.3,338.7,296.4,327.9,305.4z"/><path d="M250,263.9c5.8,0,11.2-2.3,15.3-6.3c2.9-2.9,2.9-7.7,0-10.6c-2.9-2.9-7.7-2.9-10.6,0c-1.3,1.3-2.9,1.9-4.7,1.9   s-3.4-0.7-4.7-1.9c-2.9-2.9-7.7-2.9-10.6,0c-2.9,2.9-2.9,7.7,0,10.6C238.8,261.6,244.2,263.9,250,263.9z"/><path d="M273.2,277.3c-15.8,7.1-30.9,7.1-46.3,0c-3.8-1.7-8.2-0.1-10,3.7c-1.7,3.8-0.1,8.2,3.7,10c9.6,4.5,19.4,6.7,29.2,6.7   c9.8,0,19.7-2.2,29.5-6.7c3.8-1.7,5.5-6.1,3.8-9.9C281.4,277.3,276.9,275.6,273.2,277.3z"/><circle cx="208.7" cy="209.6" r="11.9"/><circle cx="291.8" cy="209.6" r="11.9"/></g><text x="0" y="515" fill="#000000" font-size="5px" font-weight="bold" font-family="'Helvetica Neue', Helvetica, Arial-Unicode, Arial, Sans-serif">Created by iconfield</text><text x="0" y="520" fill="#000000" font-size="5px" font-weight="bold" font-family="'Helvetica Neue', Helvetica, Arial-Unicode, Arial, Sans-serif">from the Noun Project</text></svg>