<svg xmlns="http://www.w3.org/2000/svg" xmlns:xlink="http://www.w3.org/1999/xlink" version="1.1" x="0px" y="0px" viewBox="0 0 500 625" style="enable-background:new 0 0 500 500;" xml:space="preserve"><g><path d="M275,295.9c-0.8-0.6-1.9-1-3.1-0.9c0,0,0,0-0.1,0l-0.9,0c-1-0.3-2.4-1.5-3.6-2.5c-1.7-1.5-3.5-3.1-6-3.9   c-3.2-1.1-7-0.8-11.4,0.7c-4.3-1.5-8.2-1.7-11.4-0.7c-0.9,0.3-1.7,0.7-2.6,1.3c0,0,0,0,0,0c-0.5,0.3-0.9,0.6-1.4,1l-0.1,0.1   c-0.2,0.2-0.4,0.3-0.6,0.5l-0.1,0.1c-0.2,0.1-0.3,0.3-0.5,0.4l-0.7,0.6c-0.7,0.6-1.3,1.1-1.9,1.6h0l-0.7,0.5c0,0-0.1,0.1-0.1,0.1   l-0.1,0c-0.1,0.1-0.2,0.1-0.4,0.2c0,0,0,0,0,0c0,0-0.1,0-0.1,0.1c0,0,0,0,0,0c0,0,0,0,0,0c0,0-0.1,0-0.1,0l-0.1,0l-0.7,0v0   c-0.6,0-1.3,0.1-1.9,0.3c-1.2,0.4-2.1,1.2-2.5,2.1c0,0,0,0.1,0,0.1c0,0,0,0,0,0.1c-0.4,1-0.2,2.1,0.6,3c0.5,0.6,1.2,1.1,2,1.3   c0.1,0,0.2,0.1,0.2,0.1c0,0,0,0,0,0l0.1,0.1c0,0,0,0,0,0l0.5,0.4c0,0,0,0,0,0c0,0,0.1,0.1,0.1,0.1c0,0,0,0,0,0c0,0,0,0,0,0   c0,0,0.1,0.1,0.1,0.1c0,0,0,0,0,0c0.2,0.2,0.3,0.3,0.5,0.5l0.1,0.1c0.2,0.2,0.4,0.5,0.6,0.8c0,0,0,0,0,0.1c0.1,0.2,0.3,0.4,0.4,0.5   c0.1,0.2,0.2,0.3,0.4,0.5c0.2,0.2,0.3,0.5,0.5,0.7l0.1,0.2c0.1,0.2,0.2,0.3,0.4,0.5l0.2,0.2c0.1,0.2,0.3,0.3,0.4,0.5c0,0,0,0,0,0   l0.1,0.1c0.2,0.2,0.4,0.4,0.6,0.6l0,0c0.2,0.2,0.3,0.4,0.5,0.5l0.1,0.1c0.2,0.2,0.3,0.3,0.5,0.5l0.1,0.1c0.4,0.4,0.9,0.7,1.3,1.1   c0,0,0,0,0,0c0.2,0.2,0.4,0.3,0.6,0.5l0.1,0.1c0.2,0.1,0.4,0.3,0.7,0.4c0,0,0,0,0.1,0c0.5,0.3,1,0.6,1.6,0.9c0,0,0,0,0,0   c0.3,0.1,0.5,0.2,0.8,0.4c0,0,0,0,0,0c0.8,0.4,1.7,0.7,2.6,0.9c0,0,0,0,0,0c2.6,0.7,5.5,1.1,9.1,1.1c10,0,15.9-2.8,20.5-9.5   c1.5-2.2,2.5-3,3-3.3c0.5-0.1,0.9-0.3,1.3-0.6c1-0.6,1.7-1.6,1.7-2.7C276.5,297.6,276,296.6,275,295.9z M226,301.8   c-0.1,0-0.2-0.1-0.2-0.1C225.9,301.7,226,301.7,226,301.8L226,301.8z"/><path d="M356.8,296.5h4.7c24.7,0,44.7-20.1,44.7-44.7c0-23.5-18.2-42.8-41.2-44.6V192c0-45.2-26.4-84.4-64.5-102.9   c1.7-4.9,2.7-10.2,2.8-15.6h28.5c4.1,0,7.5-3.4,7.5-7.5s-3.4-7.5-7.5-7.5h-30.2c-5.9-22.9-26.8-39.9-51.5-39.9   s-45.6,16.9-51.5,39.9h-30.2c-4.1,0-7.5,3.4-7.5,7.5s3.4,7.5,7.5,7.5h28.5c0.2,5.6,1.2,10.9,2.9,16   c-38.3,18.8-64.6,58.2-64.6,103.7v14.1c-23,1.8-41.2,21.1-41.2,44.6c0,24.7,20.1,44.7,44.7,44.7h4.7c7.5,18.7,19.7,35,35.2,47.3   l-29.3,19.7c-16.7,11.3-26.7,30-26.7,50.2v0.8c0,28.1,19.1,52.3,46.3,58.9c26.2,6.3,53.2,9.5,80.2,9.5c25.6,0,51.2-2.9,76.1-8.6   l5.5-1.3c27.7-6.3,47-30.6,47-59c0-20.4-10.2-39.3-27.3-50.6L321,344.3C336.8,331.9,349.2,315.4,356.8,296.5z M364.9,254.1v-26.7   c12,1.7,21.2,12,21.2,24.5s-9.3,22.8-21.2,24.5V254.1z M135.1,254.1v22.2c-12-1.7-21.2-12-21.2-24.5s9.3-22.8,21.2-24.5V254.1z    M340.4,152.1c0.6,2.1,1.2,4.2,1.6,6.3c0.6,2.7-1.2,5.3-3.9,5.9c-0.3,0.1-0.7,0.1-1,0.1c-2.3,0-4.4-1.6-4.9-4   c-0.4-1.8-0.8-3.6-1.4-5.4c-0.8-2.6,0.7-5.4,3.3-6.2C336.8,147.9,339.6,149.4,340.4,152.1z M287.3,104.7c1-2.6,3.9-3.8,6.5-2.8   c1,0.4,25,10.3,39.3,33.8c1.4,2.4,0.7,5.4-1.7,6.9c-0.8,0.5-1.7,0.7-2.6,0.7c-1.7,0-3.3-0.9-4.3-2.4   c-12.6-20.7-34.3-29.7-34.5-29.8C287.5,110.1,286.2,107.2,287.3,104.7z M195.3,184.3c17.3,3.4,35.7,5.2,54.7,5.2   c19,0,37.4-1.8,54.7-5.2c19-3.7,36.9,9.2,39.8,27.7c-4.4-3-9.7-4.7-15.3-4.7h-50.3c-10.2,0-19.1,5.6-23.7,13.8   c-1.6-0.5-3.4-0.8-5.1-0.8c-1.8,0-3.5,0.3-5.1,0.8c-4.7-8.2-13.6-13.8-23.7-13.8h-50.3c-5.6,0-10.9,1.7-15.3,4.7   C158.7,193.5,176.3,180.5,195.3,184.3z M292.4,227.2l-16,14.5c-1,0.9-2.2,1.3-3.4,1.3c-1.4,0-2.7-0.6-3.7-1.6   c-1.9-2-1.7-5.2,0.3-7.1l16-14.5c2-1.9,5.2-1.7,7.1,0.3S294.4,225.3,292.4,227.2z M187.4,227.2l-16,14.5c-1,0.9-2.2,1.3-3.4,1.3   c-1.4,0-2.7-0.6-3.7-1.6c-1.9-2-1.7-5.2,0.3-7.1l16-14.5c2-1.9,5.2-1.7,7.1,0.3S189.4,225.3,187.4,227.2z M277,380.7   c-5.4,10.2-15.5,16.3-27.1,16.3c0,0,0,0,0,0c-11.5,0-21.7-6.1-27.1-16.3l-9.4-17.7c11.5,3.8,23.7,5.9,36.5,5.9   c12.7,0,24.9-2.1,36.3-5.9L277,380.7z M249.1,349c-46.9-0.5-85.3-35.4-92.7-80.4c9.2,10.7,22.7,17.6,37.6,18.2c0.7,0,1.3,0,2,0   c13.6,0,26.5-5.2,36.3-14.7c9.9-9.6,15.6-22.3,16-36c0.1-0.1,0.3-0.2,0.4-0.4c0.4-0.4,0.9-0.5,1.3-0.5s0.8,0.1,1.3,0.5   c0.1,0.1,0.3,0.2,0.4,0.3c0,0.2,0,0.4,0,0.5c1.1,27.1,23.3,49.1,50.4,50.1c0.7,0,1.3,0,2,0c13.6,0,26.5-5.2,36.3-14.7   c1.2-1.2,2.4-2.4,3.4-3.6C336.8,314.3,296.9,349.4,249.1,349z"/></g><text x="0" y="515" fill="#000000" font-size="5px" font-weight="bold" font-family="'Helvetica Neue', Helvetica, Arial-Unicode, Arial, Sans-serif">Created by iconfield</text><text x="0" y="520" fill="#000000" font-size="5px" font-weight="bold" font-family="'Helvetica Neue', Helvetica, Arial-Unicode, Arial, Sans-serif">from the Noun Project</text></svg>